<svg viewBox="0 0 72 72" xmlns="http://www.w3.org/2000/svg"><path d="m58 25.7-11.9-4.8c-.2-4.3-1.9-11.3-10.6-11.6-12 0-14.6 11-14.6 11l-1 2-.6 1.2-5.3 2.2" fill="#92d3f5"/><path d="m19.0858 25.7-2.2858 5.7c-.3115.5831-.3832 1.2648-.2 1.9l2.9 10.7c.0564.1933.2588.3043.4521.2479.1196-.0349.213-.1284.2479-.2479l.2-7.7.6-.6 1-1.3 8-8.8" fill="#61b2e4"/><path d="m17 60.949v-4c0-4.9941 4.6413-9.3352 9.6335-9.3352 6 5 12.9974 4.9176 18.9974-.0824 4.9941 0 9.3691 4.4235 9.3691 9.4176v4" fill="#92d3f5"/><path d="m45.6624 60.949v-4.0122c-.1404-2.631-1.6486-5.3621-3.7023-7.0128.9952-.5542 2.6756-1.5633 3.6708-2.3927 4.9941.0001 9.3691 4.4236 9.3691 9.4177v4" fill="#61b2e4"/><path d="m53.3683 40.539c-2.5437-1.0747-3.7346-4.008-2.6599-6.5517s4.008-3.7346 6.5517-2.6599 3.7346 4.008 2.6599 6.5517c-.4479 1.0601-1.2477 1.9332-2.2646 2.4721" fill="#61b2e4"/><path d="m55.3145 32.4717c-.8786.137-1.6948.5381-2.34 1.15 1.5407-.3467 3.1393-.3467 4.68 0-.6452-.6119-1.4614-1.013-2.34-1.15z" fill="#92d3f5"/><path d="m57.314 61v-20.461h-4v20.461" fill="#a57939"/><path d="m35.7577 54.3964c13.4215-9.6934 13.0943-22.1473 11.7-27.5827h-1.7s1.5809 7.897-9.7577 7.897-9.496-7.897-9.496-7.897h-1.7463c-1.6019 4.7451-2.3969 15.6744 11 27.5827z" fill="#d0cfce"/><path d="m45.7577 25.8136s1.5809 8.897-9.7577 8.897-9.496-8.897-9.496-8.897" fill="#fcea2b"/><g fill="none" stroke="#000" stroke-linecap="round" stroke-linejoin="round" stroke-width="2"><path d="m19.0858 25.8-2.1858 5.6c-.3115.5831-.3832 1.2648-.2 1.9l2.8 10.7c.0564.1933.2588.3043.4521.2479.1196-.0349.213-.1284.2479-.2479l.2-7.7c.0103-.473.0775-.943.2-1.4"/><path d="m26.9 17.5c-.4245 1.0967-.7263 2.2369-.9 3.4l-12 4.9h44l-11.9-4.9c-.2-4.3-2.2-11.3-10.9-11.6-13 0-15.2 13.5-15.2 13.5"/><path d="m53.3683 40.59c-2.5437-1.0747-3.7346-4.008-2.6599-6.5517s4.008-3.7346 6.5517-2.6599 3.7346 4.008 2.6599 6.5517c-.4479 1.0601-1.2477 1.9332-2.2646 2.4721"/><path d="m57.314 60.051v-19.446h-4v19.446"/><path d="m46.4401 48.109c2.7065.407 5.2719 1.9246 6.8759 4.0597"/><path d="m17 60v-3c0-4.5823 4.2159-8.3326 8.7675-8.92"/></g><path d="m42 29.9c0 1.1-.9 2-2 2s-2-.9-2-2 .9-2 2-2 2 .9 2 2"/><path d="m34 29.9c0 1.1-.9 2-2 2s-2-.9-2-2 .9-2 2-2 2 .9 2 2"/><path d="m33 38.1c1.9 1 4.1 1 6 0" fill="none" stroke="#000" stroke-linecap="round" stroke-linejoin="round" stroke-width="2"/><path d="m35.7577 54.3964c13.4215-9.6934 13.0943-22.1473 11.7-27.5827h-1.7s1.5809 7.897-9.7577 7.897-9.496-7.897-9.496-7.897h-1.7463c-1.6019 4.7451-2.3969 15.6744 11 27.5827z" fill="none" stroke="#000" stroke-linecap="round" stroke-linejoin="round" stroke-width="2"/></svg>